<svg id="Layer_1" xmlns="http://www.w3.org/2000/svg" viewBox="0 0 404 426"><style>.st0{fill:#28535f}.st1{fill:#68c0c3}.st2{fill:#3eb0af}.st3{fill:#85ced1}.st4{fill:#81c7cb}.st5{fill:#d8e4e6}.st6{fill:#7dbfc3}.st7{fill:#b7d1d4}.st8{fill:#cbdce0}.st9{fill:#90b8bd}.st10{fill:#359597}.st11{fill:#96585c}.st12{fill:#d8c652}</style><path class="st0" d="M193.6 156.5c-9.5.5-18.7 1.1-27.9 1.4-12.1.4-24.2.4-36.3.7-7.2.2-9.8-3.2-10.2-10.3-.9-19.3-2.3-38.5-3.9-57.7-.6-6.6 1-11.5 6.3-15.9 7.5-6.3 14.6-13.1 21.4-20.1 5.2-5.4 11.2-6.8 18.4-6.4 9.9.5 18-.5 25.1-10.6 11.3-16 35.9-17.2 48.9-2.5 9.2 10.5 19.1 11.1 30.9 9.9 17.5-1.7 18.4-.4 19.1 17.1.9 23.8 2 47.6 3.4 71.4.6 9.6-.6 16.4-12.8 15.7-6.7-.4-13.6.9-20.3 1.5-2.1.2-5.1-.3-4.9 3 .2 2.6 2.6 3.5 5.1 3.3 9.4-.7 18.9-1 28.2-2.4 10.8-1.6 14.9 2.7 13.8 13.1-.3 2.6.2 5.3-.1 7.9-.7 7.3 2.7 8.4 8.7 6.2 2.5-.9 5.1-1.4 7.7-2.1 17.7-4.8 17.8-5 14.1-23.3-1.3-6.6-4.4-13.3 4.9-17.2 8.7-3.7 16.3-3.1 22.6 4.1 2.2 2.5 4.2 5.7 4.8 8.8 1.5 7.7 4.9 9 11.9 5.8 7-3.1 11.4-.6 12.2 7.7 1.2 11.7 2 23.3 0 35-1.7 9.8-7.6 14.3-16.8 15.5-2.6.3-5.5 1-7.9.3-19.5-5.9-36.9 3.4-54.9 7.6-5.2 1.2-6.4 4-6.2 8.9.5 12.9.1 25.8 1 38.6.7 10.3-2.1 16.2-13.5 15.6-8-.5-12.1 1.7-8.4 11.1 2.6 6.6 3.1 14 4.8 21 1.9 7.8 1.8 14.9 13.3 18.4 9.9 3 16.7 14.8 23.2 24.1 3.6 5.1-.9 8.5-5.9 9.4-24.5 4.5-49.1 9-73.7 13.2-8.9 1.5-12.2-2.5-9.1-11.2 3-8.4 3.5-17.9 10.1-24.9 2.2-2.3 1.1-5 .7-7.6-2-13.5-4.1-26.9-6.4-40.3-.6-3.3-.1-8.5-6-7.4-4.8.9-11.1-1.9-13.5 5.3-5.1 15-10.1 30.1-15.4 45-2.9 8.2 3.8 12.6 7.1 18.1 12 19.8 12.2 19.7-10.8 23.9-20.4 3.8-40.8 7.6-61.2 11.5-3.8.7-7.6 1.8-10.4-1.9-2.8-3.7-1-7.5 1.2-10.5 6.8-9.5 7.4-25 24.2-25.2 3.1 0 3.5-3.6 4.4-6 5.6-15.7 10.9-31.4 16.7-47 2.5-6.6 1.1-8.5-6.1-8.1-12.1.7-24.2 0-36.3.6-9.6.5-13.9-2.6-13.4-12.9.7-12.8-.1-25.7.3-38.6.2-5.9-1.8-7.8-7.8-7.9-11.7-.2-23.5-1.2-33.6-8.4-3.6-2.5-6-1.4-8.4 2-8.8 12-15.8.6-23.3-2.2-7.2-2.6-7.5-8-3.7-13.7 2.9-4.3-.2-7-1.6-10.3-7-15.4 1.1-26.3 18-27.1 9.9-.4 19.5-5.3 29.6.3 5.4 3 10.7 4.9 6.5 12.4-2 3.7 0 5.4 3 7.1 8.5 4.8 21.6 4.1 21-1.2-1.4-11.5 6.3-14.4 14.1-18.7 17.7-10 35.9-17.4 56.6-16.9 2.6.2 6.6.5 7.4-6zm77.9-98.8l-.2-.2c-3.5-2.5-7.1-1.9-10.7-.1-9.6-.6-19.1.1-28.5 1.7-3.7-1.9-7.2-1.3-10.8.3-12.4.1-24.7-.1-37.1.3-25.7 1-25.7 1.1-23.4 27 .7 9.8 1.3 19.6 2 29.4.1 6 .5 12 .2 18-.5 10.4 4.2 12.2 13.8 11.1 29.9-3.2 59.9-5.6 89.8-8.1 11.6-1 12.3-1.9 8.8-14.2.6-15.9.1-31.8-2.1-47.5-.2-3.8-.3-7.6-.5-11.4.7-2.3 1.2-4.6-1.3-6.3zm82 119.8l.5-.1c-4-6-.6-13.9-4.9-19.9-3.3-1.5-3.4-6.7-9-7.1 1.3 8 3 15.5 3.6 23.2.7 7.9.4 15.9.4 23.8 0 3.1 1.3 4.5 4.3 5.5 16.7 5.8 25.1.2 25.1-17.3v-9.1c-.1-4.4-1.5-6.6-6.1-3.6-2.4 1.6-5 2.9-7.6 4.3-2 .2-4.2.3-6.3.3zm-84.7 138.3c-3.1-9-.4-19.8-8.7-27.1-14.7.6-14.6.6-12.1 15.3 1.5 8.9 2.3 18 3.7 26.9 2.4 16 2.5 16 18 10.2 4.1.3 5.4-2 4.5-5.4-1.7-6.6-1.6-13.8-5.4-19.9zm-141.2-76.3c-1.3 15.4-3 30.8.9 46.2 1.2 0 2.4.1 3.6.1 3.4.2 6.8.1 10.2.6 10.6 1.6 14.5-1.9 13.8-13.4-1.5-23.7-1.7-47.5-2.1-71.3-.4-23.8 2.3-20.9-20.1-11.2-.3.2-.7.4-1 .5-2.3.9-4.1 2.2-3.5 5 .7 3.2 3.5 2.4 5.5 2.4 3.1-.1 6.8-.8 8.3 2.1 5 9.4 4.9 19.9 3.8 29.8-.9 7.9-9.6 5.5-14.8 7.5-1.9-.4-3.5.2-4.6 1.7zM298 200.3c-.8 13.8.4 14.8 13.3 10.3 5-1.7 9.7-4.1 14.6-6 5.4-2.2 7.6-5.9 6-11.6 2.1-3.9 2.5-7-3.4-5.4-9.1 2.4-18.1 5.2-27.1 7.8-2.5.6-3.8 2.2-3.4 4.9zM144.3 375.1c-3.4 4.3-5.3 8.3 3.1 7.1 6.1-.9 12-2.6 18-3.9 8.6-1.2 17.2-2.3 25.7-3.8 2.9-.5 7.9-.1 6.1-5.6-1.2-3.6-3.1-7.2-8.1-6.2-8.5 1.8-17 3.4-25.4 5.7-6.5 1.8-14.5-.1-19.4 6.7zm-64-166.2c-7.1 6.1-4.2 10 2.8 13.2 14 6.4 28.6 5.9 43.4 4.3 8.2-.9 10.5-4.8 7.4-12.2-7.3-2.1-14.5.4-21.7 1-11.4.8-21-5.6-31.9-6.3zm200.4-42.1c-9.8 0-19.6.5-29 3.5-2.4.1-4.8.3-7.2.4-1.6-.8-3.2-.9-4.7.3-7.6 0-15.2.1-22.6 2-1.6-.8-3.2-.8-4.7.3-7.6 0-15.3.2-22.8 2.1-5.5-.1-11-.6-16.1 2.1-1.5 0-2.9.1-4.4.1-5.6-.4-4.6 3.8-4.6 6.9.8 31.6 1.7 63.2 2.6 94.8.1 2.9-.5 6.6 4.5 5.7 36.6-3.4 73.1-6.9 109.7-10.3 5.9 1.1 5.9-2.8 5.9-6.8-.7-31.9-1.4-63.9-2-95.8 0-3.2.3-6.6-4.6-5.3zM190 295.7c-3.6-.2-4 2.7-4.9 5.1-5.1 14.4-10.4 28.8-15.2 43.3-1 3-3.8 6.5-.7 10.1 9.5 1.7 15.4-1.1 18.1-11.3 3.4-12.6 8.2-24.8 12.3-37.2 4.2-12.6 4.2-12.6-9.6-10zM135 80.9c-6.9 1.3-9 5.8-8.1 12.3 1.4 10.8 2.6 21.6 3.8 32.4-.1 2.3 0 4.5-.2 6.8-.9 9.7 2.1 14.3 13.2 14 12.2-.3 8.1-7.9 8.1-14 0-3.8 0-7.6-.7-11.3-3.1-16.9-.7-34.4-4.3-51.4-7.3 1.4-7.2 8.6-11.8 11.2zm113.9 289.2c14.7-3.3 28.7-6.4 42.6-9.6 2.9-.7 6.7-1.4 5.1-5.6-1.3-3.4-3.4-7.1-8.2-6.1-5.9 1.3-11.6 3-17.4 4.6-6.9 1.9-13.8 3.6-20.6 5.7-4.2 1.3-5.5 5-5.1 9 .2 2.6 2.4 2.2 3.6 2zM196 46.5h32.4c-9.9-11.9-23.9-11.5-32.4 0zM76.5 192c-.9-1.1-1.4-2.3-2.2-2.6-1.8-.8-3.8-.6-5 1.2-3.1 4.7-6.8 9.2-9 14.3-2.6 5.8-12.5 13.4-7.1 16.5 7.6 4.3 8.5-8.4 13-13.1 4.2-4.6 6.8-10.7 10.3-16.3zm160.8-33.3c-6.1-6.2-23.2-8.4-28.2-4.1-1.6 1.3-3.7 3.3-2.5 5.8.9 2 3.2 1.4 5 1.2 8.2-.9 16.4-1.9 25.7-2.9z"/><path class="st1" d="M281.6 274.6c-36.6 3.4-73.1 6.9-109.7 10.3 0-21.3-.1-42.6-.1-63.9 9.4-.4 18.4 1.4 27.1 4.5 2.8 1 5.6 3.1 6.8-1.8 9.5 7.9 20.1 9.9 31.9 6.1 4.6 9.3 13.6 5.8 21 7.2-16.8 2.1-33.6 4.7-50.5 6.3-21.2 2-21.2 1.7-18.3 22.3.1.4.1.8.1 1.1.4 6.1 3.3 8.7 9.6 8 12-1.3 24.1-1.9 36.1-3.3 9-1 19.8 2.6 26.5-3.3 7.5-6.6 1.5-18 3.5-27 4.9.1 9.8.3 14.7.4.4 11.1.8 22.1 1.3 33.1zm-6.2-151.7c3.5 12.3 2.8 13.2-8.8 14.2-30 2.5-60 4.8-89.8 8.1-9.6 1-14.3-.7-13.8-11.1.3-6-.1-12-.2-18 4.2-4.7 1.3-10.4 2.3-15.5 7.9.5 15.9 1.1 23.8 1.6 5.3 2.4 10.9 2.5 16.5 1.8 1.5 4.6 5.5 5.7 9.4 6.6 7.5 1.8 15 3.3 22.6 4.9-8.4 5.6-17.2 3.9-26 1.5-4.2-1.2-9.1-4.9-11.1 1.9-1.9 6.4 4.3 7.2 8.3 8.3 17.1 4.6 32.8 1.4 47.1-9 5.6 3.7 12.1 4.2 18.5 4.6l.6-.1.6.2z"/><path class="st2" d="M132.1 237.7c5.3-2 14 .4 14.8-7.5 1.1-10 1.2-20.5-3.8-29.8-1.5-2.9-5.3-2.2-8.3-2.1-2 .1-4.8.8-5.5-2.4-.6-2.8 1.2-4.1 3.5-5 .4-.1.7-.3 1-.5 22.4-9.7 19.7-12.6 20.1 11.2.4 23.8.5 47.6 2.1 71.3.8 11.5-3.2 15-13.8 13.4-3.3-.5-6.8-.4-10.2-.6 1.3-15.9 1.2-32 .1-48z"/><path class="st3" d="M205.7 223.7c-1.2 4.9-4 2.7-6.8 1.8-8.8-3.1-17.8-4.9-27.1-4.5l-2.4-43.5c1.5 0 2.9-.1 4.4-.1 10.5 5.6 22.1 6.7 33.6 7.9-10 12.4-11 25.2-1.7 38.4z"/><path class="st2" d="M135 80.9c4.6-2.6 4.5-9.8 11.8-11.3 3.7 17 1.3 34.5 4.3 51.4.7 3.7.7 7.5.7 11.3 0 6.1 4.1 13.7-8.1 14-11.1.3-14.1-4.3-13.2-14 .2-2.3.1-4.5.2-6.8 4.2-3.5 2-8.3 2.5-12.6 1.1-10.5-2.3-21.5 1.8-32z"/><path class="st3" d="M244.5 170.7c2.4-.1 4.8-.3 7.2-.4 9.5 1.1 18.3 5.9 28.1 5 .9 7 1.1 14 0 21-10.2-1.7-20.3-3.3-30.5-5-9.4-11.2-21.2-14.6-35.2-10.3-8.2-1.6-16.8-1.3-24.3-5.6 7.5-1.8 15.1-2.1 22.8-2.1 1.7 2.4 3.3 2 4.7-.3 7.4-1.9 15-1.9 22.6-2 1.7 2.4 3.2 2 4.6-.3z"/><path class="st4" d="M359.9 177.3c2.5-1.4 5.1-2.7 7.6-4.3 4.6-3 6-.8 6.1 3.6.1 3 0 6.1 0 9.1 0 17.5-8.4 23.1-25.1 17.3-3-1.1-4.3-2.4-4.3-5.5 0-7.9.3-15.9-.4-23.8-.6-7.6-2.3-15.2-3.6-23.2 5.5.4 5.7 5.6 9 7.1.9 6.8-8.8 16.2 4.9 19.9l-.5.1c2.2 3.1 4.3 3 6.3-.3zm-90.2 163.9c-15.5 5.9-15.6 5.9-18-10.2-1.3-9-2.2-18-3.7-26.9-2.5-14.7-2.6-14.7 12.1-15.3-.9 9.6 2.5 18.6 4.7 27.7 1.7 8.2 3.3 16.4 4.9 24.7zM190 295.7c13.8-2.6 13.9-2.6 9.7 10-4.1 12.4-9 24.6-12.3 37.2-2.7 10.2-8.7 13-18.1 11.3 11.5-17.9 16.4-38.1 20.7-58.5z"/><path class="st5" d="M232.1 59.1c9.4-1.6 18.9-2.2 28.5-1.7 3.6 0 7.1.1 10.7.1l.2.2c.4 2.1.9 4.2 1.3 6.3.2 3.8.3 7.6.5 11.4-1.3.1-2.7.2-4 .3-1.8-4.9 2.4-13.6-6.9-13.8-9.7-.2-19.6-1.4-29.2.9l-32.7 1.8c-3.8.7-7.6 1.5-11.5 2.2-2.6-.2-5.2-.6-7.7-.6-22.1.2-17.8-1.5-18.5 18.3-.6.7-1.3 1.4-1.9 2.1-2.3-25.9-2.3-26 23.4-27 12.4-.5 24.7-.2 37.1-.3 3.5 0 7.1-.1 10.7-.2zm47.7 137.1c1.2-7 .9-14 0-21l.9-8.4c4.9-1.3 4.6 2.1 4.7 5.2.7 31.9 1.4 63.9 2 95.8.1 4 0 7.9-5.9 6.8-.4-11-.9-22-1.3-33-.1-13-.1-26.1-.2-39.1-.1-2.1-.1-4.2-.2-6.3z"/><path class="st4" d="M248.9 370.1c-1.2.2-3.4.6-3.7-2-.4-4 .9-7.7 5.1-9 6.8-2.1 13.7-3.9 20.6-5.7 5.8-1.6 11.6-3.3 17.4-4.6 4.8-1.1 6.9 2.7 8.2 6.1 1.6 4.2-2.2 4.9-5.1 5.6-13.8 3.2-27.8 6.3-42.5 9.6z"/><path class="st6" d="M133.9 214.1c3.1 7.4.8 11.3-7.4 12.2-14.8 1.7-29.4 2.1-43.4-4.3-7-3.2-9.9-7.1-2.8-13.2 11.6 12.1 35.8 14.5 53.6 5.3zm10.4 161c4.9-6.8 12.9-4.9 19.5-6.7 8.3-2.3 16.9-3.9 25.4-5.7 5-1.1 6.9 2.6 8.1 6.2 1.8 5.5-3.2 5.1-6.1 5.6-8.5 1.5-17.1 2.6-25.7 3.8-3-3.9-7.1-3.2-10.9-2-3.8 1.2-7.1 1-10.3-1.2z"/><path class="st5" d="M169.4 177.5l2.4 43.5c0 21.3.1 42.6.1 63.9-5 .9-4.4-2.8-4.5-5.7-.9-31.6-1.8-63.2-2.6-94.8-.1-3.1-1.1-7.3 4.6-6.9z"/><path class="st6" d="M331.9 192.9c1.6 5.7-.6 9.5-6 11.6-4.9 2-9.7 4.3-14.6 6-12.8 4.5-14 3.5-13.3-10.3 12.3 2.2 22.1-7.1 33.9-7.3z"/><path class="st7" d="M190 295.7c-4.3 20.4-9.2 40.6-20.8 58.4-3-3.6-.3-7 .7-10.1 4.8-14.5 10.1-28.9 15.2-43.3.9-2.4 1.3-5.2 4.9-5z"/><path class="st1" d="M196 46.5c8.5-11.6 22.5-11.9 32.4 0H196z"/><path class="st7" d="M76.5 192c-3.4 5.6-6.1 11.7-10.3 16.2-4.4 4.7-5.4 17.4-13 13.1-5.4-3.1 4.5-10.7 7.1-16.5 2.3-5.1 5.9-9.6 9-14.3 1.2-1.8 3.2-2.1 5-1.2.8.4 1.3 1.6 2.2 2.7z"/><path class="st8" d="M133.9 214.1c-17.7 9.2-42 6.8-53.6-5.3 10.9.7 20.5 7.1 31.9 6.2 7.2-.5 14.4-3 21.7-.9z"/><path class="st9" d="M135 80.9c-4.1 10.5-.6 21.4-1.8 32.1-.5 4.3 1.7 9.1-2.5 12.6-1.3-10.8-2.5-21.6-3.8-32.4-.9-6.5 1.1-10.9 8.1-12.3z"/><path class="st5" d="M132.1 237.7c1 16 1.1 32.1 0 48.1-1.2 0-2.4-.1-3.6-.1l-.9-46.2c1.1-1.5 2.7-2.1 4.5-1.8z"/><path class="st7" d="M269.3 75.7c1.3-.1 2.7-.2 4-.3 2.2 15.8 2.7 31.6 2.1 47.5l-.6-.2-.6.1c-5.7-8.3.6-18.7-4.6-27l-.3-20.1z"/><path class="st6" d="M237.3 158.7c-9.3 1.1-17.5 2-25.7 2.9-1.8.2-4.1.8-5-1.2-1.1-2.5 1-4.4 2.5-5.8 5-4.3 22.1-2.1 28.2 4.1z"/><path class="st1" d="M189.8 175.3c7.5 4.3 16.2 4 24.3 5.6-2.3 1.5-4.5 2.9-6.8 4.4-11.5-1.2-23.1-2.3-33.6-7.9 5.2-2.7 10.7-2.2 16.1-2.1z"/><path class="st8" d="M331.9 192.9c-11.8.2-21.6 9.6-33.9 7.4-.4-2.7.9-4.3 3.4-5 9-2.6 18-5.4 27.1-7.8 5.9-1.6 5.5 1.5 3.4 5.4z"/><path class="st1" d="M280.7 166.8l-.9 8.4c-9.8.9-18.7-3.8-28.1-5 9.4-2.9 19.2-3.4 29-3.4z"/><path class="st7" d="M269.7 341.2c-1.6-8.2-3.2-16.5-4.8-24.7 1.3-.2 2.7-.4 4-.6 3.7 6.1 3.6 13.2 5.3 19.9.9 3.3-.4 5.7-4.5 5.4zM160.8 86.7c.6-.7 1.3-1.4 1.9-2.1 4.1 4.9 1.3 10.7 2.4 16-1 5.1 1.9 10.8-2.3 15.5-.7-9.8-1.4-19.6-2-29.4z"/><path class="st8" d="M268.8 315.8c-1.3.2-2.7.4-4 .6-2.2-9.1-5.6-18-4.7-27.7 8.3 7.4 5.6 18.2 8.7 27.1zm-124.5 59.3c3.2 2.2 6.5 2.4 10.3 1.2 3.8-1.2 7.9-1.9 10.9 2-6 1.3-12 3.1-18 3.9-8.5 1.2-6.5-2.8-3.2-7.1z"/><path class="st2" d="M127.6 239.5l.9 46.2c-3.9-15.3-2.2-30.8-.9-46.2z"/><path class="st8" d="M354 177.5c-13.6-3.7-4-13.1-4.9-19.9 4.3 5.9.8 13.8 4.9 19.9z"/><path class="st7" d="M271.3 57.5c-3.6 0-7.1-.1-10.7-.1 3.5-1.8 7.1-2.3 10.7.1z"/><path class="st1" d="M244.5 170.7c-1.4 2.3-2.9 2.7-4.7.3 1.6-1.2 3.1-1.1 4.7-.3zm-27.2 2.2c-1.4 2.3-2.9 2.8-4.7.3 1.5-1 3-1.1 4.7-.3z"/><path class="st7" d="M232.1 59.1l-10.8.3c3.5-1.6 7.1-2.2 10.8-.3zm40.7 4.9c-.4-2.1-.9-4.2-1.3-6.3 2.5 1.7 2 4 1.3 6.3z"/><path class="st8" d="M359.9 177.3c-2 3.3-4.1 3.5-6.4.3 2.1-.1 4.3-.2 6.4-.3z"/><path class="st0" d="M265.6 241.2c-2 9 4 20.4-3.5 27-6.7 5.9-17.5 2.3-26.5 3.3-12 1.4-24.1 2-36.1 3.3-6.3.7-9.3-1.9-9.6-8 0-.4-.1-.8-.1-1.1-2.9-20.7-2.8-20.3 18.3-22.3 16.9-1.6 33.7-4.1 50.5-6.3 3.6-.8 5.1 2 7 4.1zm-66.5 17.9c-.6 4.4 1 5.9 5.7 5.5 15-1.4 30-2.6 45-3.6 5.9-.4 6.5-3.9 5.7-8.6.6-3.6-1-4.6-4.4-4.3-16.1 1.7-32.2 3.3-48.3 4.8-4.4.4-4.7 2.8-3.7 6.2zm8.3-73.8c2.3-1.5 4.5-2.9 6.8-4.4 14-4.3 25.7-.9 35.2 10.3.9 2.4 1.8 4.7 2.6 7.1 2.6 13.9-2.8 24.1-14.4 31.5-11.7 3.8-22.4 1.8-31.9-6.1-9.3-13.2-8.3-26 1.7-38.4zm35.2 19.8c-.1-8.6-3.7-15.2-12.6-15.7-13.5-.7-22 6.6-21.6 16.9.3 8 9.3 16.3 17.5 16.1 9.6-.1 16.8-7.5 16.7-17.3z"/><path class="st3" d="M237.6 229.9c11.6-7.4 16.9-17.6 14.4-31.5 9.5.7 18.4 5 28 4.1.1 13 .2 26.1.2 39.1-4.9-.1-9.8-.3-14.7-.4-1.9-2.1-3.4-4.9-7-4.1-7.3-1.4-16.3 2.1-20.9-7.2z"/><path class="st4" d="M269.6 95.8c5.2 8.4-1.1 18.7 4.6 27-6.5-.4-12.9-.8-18.5-4.6 1.6-3.9 5.7-8.2.6-11.8-4.1-2.9-6.3 2-9.2 4-3 2.1-5.9 4.5-9.7 5.1-7.5-1.6-15.1-3.1-22.6-4.9-3.9-.9-8-2.1-9.4-6.6 5.5-4.1 13.6-6.6 9.5-16.3v-6.1c1-.8 2.8-.5 2.1-2.9-2.4-8.5-9.1-11.6-16.5-14.1l32.7-1.8c0 1.6-.1 3.1-.1 4.7-8 10-8.4 18.8-1.3 26.3 6.4 6.8 15.9 6.8 26.8-.1 3.6.7 7.3 1.4 11 2.1z"/><path class="st0" d="M237.4 115.5c3.8-.6 6.7-3 9.7-5.1 2.8-2 5.1-6.8 9.2-4 5.1 3.6 1 7.9-.6 11.8-14.3 10.4-30.1 13.5-47.1 9-4-1.1-10.2-1.8-8.3-8.3 2-6.8 6.9-3.1 11.1-1.9 8.7 2.4 17.6 4.1 26-1.5z"/><path class="st4" d="M165.1 100.6c-1.1-5.3 1.7-11.2-2.4-16 .7-19.8-3.5-18.2 18.5-18.3 2.6 0 5.2.4 7.7.6-11.5 10.3-13 16.4-6.8 27.6l1.5 2.7 2.4 2.4c.9.9 1.8 1.8 2.8 2.7-7.9-.6-15.8-1.2-23.7-1.7z"/><path class="st1" d="M280 202.5c-9.7.8-18.6-3.5-28-4.1-.9-2.4-1.8-4.7-2.6-7.1 10.2 1.7 20.3 3.3 30.5 5 0 2 0 4.1.1 6.2z"/><path class="st6" d="M269.6 95.8l-11.1-2.1c1.3-3.1 3.3-6.2 3.8-9.4 1.3-7.8-1.5-14.5-8.5-18.2-5.4-2.9-11.7-6-16.6 1.3l-.3.1H233c0-1.6.1-3.1.1-4.7 9.7-2.3 19.5-1.1 29.2-.9 9.3.2 5.2 8.9 6.9 13.8.2 6.7.3 13.4.4 20.1z"/><path class="st2" d="M255.4 252.3c.8 4.7.2 8.2-5.7 8.6-15 1.1-30 2.2-45 3.6-4.6.4-6.3-1-5.7-5.5 18.9-2.2 37.6-4.4 56.4-6.7z"/><path class="st7" d="M255.4 252.3c-18.8 2.3-37.6 4.5-56.4 6.8-1-3.4-.7-5.8 3.7-6.3 16.1-1.5 32.2-3.1 48.3-4.8 3.4-.3 5.1.8 4.4 4.3z"/><path class="st10" d="M242.6 205.1c.1 9.8-7.1 17.2-16.8 17.4-8.2.1-17.1-8.1-17.5-16.1-.4-10.3 8.1-17.6 21.6-16.9 9 .4 12.6 7.1 12.7 15.6zm-5-2c-.3-5.8-4.4-9.9-12-9.7-7.8.2-11.2 4.8-11.3 12.4-.1 8.2 5.3 11.8 12 11.7 7.1-.1 11.6-4.7 11.3-14.4z"/><path class="st0" d="M237.6 203.1c.3 9.7-4.2 14.3-11.3 14.4-6.8.1-12.1-3.5-12-11.7.1-7.6 3.5-12.2 11.3-12.4 7.7-.2 11.8 3.9 12 9.7zm-5.1 2.3c-.7-3.5-2.2-6.5-6.3-6.6-4-.1-6.4 2.3-6.6 6.1-.2 4.3 1.9 7.2 6.6 7.1 4.4.1 5.5-3.2 6.3-6.6z"/><path class="st6" d="M232.5 205.4c-.9 3.4-1.9 6.6-6.3 6.7-4.8 0-6.8-2.8-6.6-7.1.2-3.9 2.6-6.3 6.6-6.1 4.1 0 5.7 3 6.3 6.5z"/><circle class="st0" cx="196.5" cy="85.1" r="22.1"/><circle class="st11" cx="196.5" cy="84.9" r="16.2"/><circle class="st12" cx="196.5" cy="84.9" r="10.3"/><circle class="st0" cx="247.1" cy="80.7" r="20.6"/><circle class="st11" cx="247.1" cy="80.5" r="15.1"/><circle class="st12" cx="247.1" cy="80.5" r="9.7"/></svg>