<?xml version="1.0" encoding="utf-8"?>
<!-- Generator: Adobe Illustrator 21.0.2, SVG Export Plug-In . SVG Version: 6.00 Build 0)  -->
<svg version="1.1" id="Layer_1" xmlns="http://www.w3.org/2000/svg" xmlns:xlink="http://www.w3.org/1999/xlink" x="0px" y="0px"
	 viewBox="0 0 404 426" style="enable-background:new 0 0 404 426;" xml:space="preserve">
<style type="text/css">
	.st0{fill:#28535F;}
	.st1{fill:#68C0C3;}
	.st2{fill:#3EB0AF;}
	.st3{fill:#85CED1;}
	.st4{fill:#81C7CB;}
	.st5{fill:#D8E4E6;}
	.st6{fill:#7DBFC3;}
	.st7{fill:#B7D1D4;}
	.st8{fill:#CBDCE0;}
	.st9{fill:#90B8BD;}
	.st10{fill:#359597;}
	.st11{fill:#96585C;}
	.st12{fill:#D8C652;}
</style>
<path class="st0" d="M193.6,156.5c-9.5,0.5-18.7,1.1-27.9,1.4c-12.1,0.4-24.2,0.4-36.3,0.7c-7.2,0.2-9.8-3.2-10.2-10.3
	c-0.9-19.3-2.3-38.5-3.9-57.7c-0.6-6.6,1-11.5,6.3-15.9c7.5-6.3,14.6-13.1,21.4-20.1c5.2-5.4,11.2-6.8,18.4-6.4
	c9.9,0.5,18-0.5,25.1-10.6c11.3-16,35.9-17.2,48.9-2.5c9.2,10.5,19.1,11.1,30.9,9.9c17.5-1.7,18.4-0.4,19.1,17.1
	c0.9,23.8,2,47.6,3.4,71.4c0.6,9.6-0.6,16.4-12.8,15.7c-6.7-0.4-13.6,0.9-20.3,1.5c-2.1,0.2-5.1-0.3-4.9,3c0.2,2.6,2.6,3.5,5.1,3.3
	c9.4-0.7,18.9-1,28.2-2.4c10.8-1.6,14.9,2.7,13.8,13.1c-0.3,2.6,0.2,5.3-0.1,7.9c-0.7,7.3,2.7,8.4,8.7,6.2c2.5-0.9,5.1-1.4,7.7-2.1
	c17.7-4.8,17.8-5,14.1-23.3c-1.3-6.6-4.4-13.3,4.9-17.2c8.7-3.7,16.3-3.1,22.6,4.1c2.2,2.5,4.2,5.7,4.8,8.8c1.5,7.7,4.9,9,11.9,5.8
	c7-3.1,11.4-0.6,12.2,7.7c1.2,11.7,2,23.3,0,35c-1.7,9.8-7.6,14.3-16.8,15.5c-2.6,0.3-5.5,1-7.9,0.3c-19.5-5.9-36.9,3.4-54.9,7.6
	c-5.2,1.2-6.4,4-6.2,8.9c0.5,12.9,0.1,25.8,1,38.6c0.7,10.3-2.1,16.2-13.5,15.6c-8-0.5-12.1,1.7-8.4,11.1c2.6,6.6,3.1,14,4.8,21
	c1.9,7.8,1.8,14.9,13.3,18.4c9.9,3,16.7,14.8,23.2,24.1c3.6,5.1-0.9,8.5-5.9,9.4c-24.5,4.5-49.1,9-73.7,13.2
	c-8.9,1.5-12.2-2.5-9.1-11.2c3-8.4,3.5-17.9,10.1-24.9c2.2-2.3,1.1-5,0.7-7.6c-2-13.5-4.1-26.9-6.4-40.3c-0.6-3.3-0.1-8.5-6-7.4
	c-4.8,0.9-11.1-1.9-13.5,5.3c-5.1,15-10.1,30.1-15.4,45c-2.9,8.2,3.8,12.6,7.1,18.1c12,19.8,12.2,19.7-10.8,23.9
	c-20.4,3.8-40.8,7.6-61.2,11.5c-3.8,0.7-7.6,1.8-10.4-1.9c-2.8-3.7-1-7.5,1.2-10.5c6.8-9.5,7.4-25,24.2-25.2c3.1,0,3.5-3.6,4.4-6
	c5.6-15.7,10.9-31.4,16.7-47c2.5-6.6,1.1-8.5-6.1-8.1c-12.1,0.7-24.2,0-36.3,0.6c-9.6,0.5-13.9-2.6-13.4-12.9
	c0.7-12.8-0.1-25.7,0.3-38.6c0.2-5.9-1.8-7.8-7.8-7.9c-11.7-0.2-23.5-1.2-33.6-8.4c-3.6-2.5-6-1.4-8.4,2c-8.8,12-15.8,0.6-23.3-2.2
	c-7.2-2.6-7.5-8-3.7-13.7c2.9-4.3-0.2-7-1.6-10.3c-7-15.4,1.1-26.3,18-27.1c9.9-0.4,19.5-5.3,29.6,0.3c5.4,3,10.7,4.9,6.5,12.4
	c-2,3.7,0,5.4,3,7.1c8.5,4.8,21.6,4.1,21-1.2c-1.4-11.5,6.3-14.4,14.1-18.7c17.7-10,35.9-17.4,56.6-16.9
	C188.8,162.7,192.8,163,193.6,156.5z M271.5,57.7l-0.2-0.2c-3.5-2.5-7.1-1.9-10.7-0.1c-9.6-0.6-19.1,0.1-28.5,1.7
	c-3.7-1.9-7.2-1.3-10.8,0.3c-12.4,0.1-24.7-0.1-37.1,0.3c-25.7,1-25.7,1.1-23.4,27c0.7,9.8,1.3,19.6,2,29.4c0.1,6,0.5,12,0.2,18
	c-0.5,10.4,4.2,12.2,13.8,11.1c29.9-3.2,59.9-5.6,89.8-8.1c11.6-1,12.3-1.9,8.8-14.2c0.6-15.9,0.1-31.8-2.1-47.5
	c-0.2-3.8-0.3-7.6-0.5-11.4C273.5,61.7,274,59.4,271.5,57.7z M353.5,177.5l0.5-0.1c-4-6-0.6-13.9-4.9-19.9c-3.3-1.5-3.4-6.7-9-7.1
	c1.3,8,3,15.5,3.6,23.2c0.7,7.9,0.4,15.9,0.4,23.8c0,3.1,1.3,4.5,4.3,5.5c16.7,5.8,25.1,0.2,25.1-17.3c0-3,0-6.1,0-9.1
	c-0.1-4.4-1.5-6.6-6.1-3.6c-2.4,1.6-5,2.9-7.6,4.3C357.8,177.4,355.6,177.5,353.5,177.5z M268.8,315.8c-3.1-9-0.4-19.8-8.7-27.1
	c-14.7,0.6-14.6,0.6-12.1,15.3c1.5,8.9,2.3,18,3.7,26.9c2.4,16,2.5,16,18,10.2c4.1,0.3,5.4-2,4.5-5.4
	C272.5,329.1,272.6,321.9,268.8,315.8z M127.6,239.5c-1.3,15.4-3,30.8,0.9,46.2c1.2,0,2.4,0.1,3.6,0.1c3.4,0.2,6.8,0.1,10.2,0.6
	c10.6,1.6,14.5-1.9,13.8-13.4c-1.5-23.7-1.7-47.5-2.1-71.3c-0.4-23.8,2.3-20.9-20.1-11.2c-0.3,0.2-0.7,0.4-1,0.5
	c-2.3,0.9-4.1,2.2-3.5,5c0.7,3.2,3.5,2.4,5.5,2.4c3.1-0.1,6.8-0.8,8.3,2.1c5,9.4,4.9,19.9,3.8,29.8c-0.9,7.9-9.6,5.5-14.8,7.5
	C130.3,237.4,128.7,238,127.6,239.5z M298,200.3c-0.8,13.8,0.4,14.8,13.3,10.3c5-1.7,9.7-4.1,14.6-6c5.4-2.2,7.6-5.9,6-11.6
	c2.1-3.9,2.5-7-3.4-5.4c-9.1,2.4-18.1,5.2-27.1,7.8C298.9,196,297.6,197.6,298,200.3z M144.3,375.1c-3.4,4.3-5.3,8.3,3.1,7.1
	c6.1-0.9,12-2.6,18-3.9c8.6-1.2,17.2-2.3,25.7-3.8c2.9-0.5,7.9-0.1,6.1-5.6c-1.2-3.6-3.1-7.2-8.1-6.2c-8.5,1.8-17,3.4-25.4,5.7
	C157.2,370.2,149.2,368.3,144.3,375.1z M80.3,208.9c-7.1,6.1-4.2,10,2.8,13.2c14,6.4,28.6,5.9,43.4,4.3c8.2-0.9,10.5-4.8,7.4-12.2
	c-7.3-2.1-14.5,0.4-21.7,1C100.8,216,91.2,209.6,80.3,208.9z M280.7,166.8c-9.8,0-19.6,0.5-29,3.5c-2.4,0.1-4.8,0.3-7.2,0.4
	c-1.6-0.8-3.2-0.9-4.7,0.3c-7.6,0-15.2,0.1-22.6,2c-1.6-0.8-3.2-0.8-4.7,0.3c-7.6,0-15.3,0.2-22.8,2.1c-5.5-0.1-11-0.6-16.1,2.1
	c-1.5,0-2.9,0.1-4.4,0.1c-5.6-0.4-4.6,3.8-4.6,6.9c0.8,31.6,1.7,63.2,2.6,94.8c0.1,2.9-0.5,6.6,4.5,5.7
	c36.6-3.4,73.1-6.9,109.7-10.3c5.9,1.1,5.9-2.8,5.9-6.8c-0.7-31.9-1.4-63.9-2-95.8C285.3,168.9,285.6,165.5,280.7,166.8z M190,295.7
	c-3.6-0.2-4,2.7-4.9,5.1c-5.1,14.4-10.4,28.8-15.2,43.3c-1,3-3.8,6.5-0.7,10.1c9.5,1.7,15.4-1.1,18.1-11.3
	c3.4-12.6,8.2-24.8,12.3-37.2C203.8,293.1,203.8,293.1,190,295.7z M135,80.9c-6.9,1.3-9,5.8-8.1,12.3c1.4,10.8,2.6,21.6,3.8,32.4
	c-0.1,2.3,0,4.5-0.2,6.8c-0.9,9.7,2.1,14.3,13.2,14c12.2-0.3,8.1-7.9,8.1-14c0-3.8,0-7.6-0.7-11.3c-3.1-16.9-0.7-34.4-4.3-51.4
	C139.5,71.1,139.6,78.3,135,80.9z M248.9,370.1c14.7-3.3,28.7-6.4,42.6-9.6c2.9-0.7,6.7-1.4,5.1-5.6c-1.3-3.4-3.4-7.1-8.2-6.1
	c-5.9,1.3-11.6,3-17.4,4.6c-6.9,1.9-13.8,3.6-20.6,5.7c-4.2,1.3-5.5,5-5.1,9C245.5,370.7,247.7,370.3,248.9,370.1z M196,46.5
	c11,0,21.3,0,32.4,0C218.5,34.6,204.5,35,196,46.5z M76.5,192c-0.9-1.1-1.4-2.3-2.2-2.6c-1.8-0.8-3.8-0.6-5,1.2
	c-3.1,4.7-6.8,9.2-9,14.3c-2.6,5.8-12.5,13.4-7.1,16.5c7.6,4.3,8.5-8.4,13-13.1C70.4,203.7,73,197.6,76.5,192z M237.3,158.7
	c-6.1-6.2-23.2-8.4-28.2-4.1c-1.6,1.3-3.7,3.3-2.5,5.8c0.9,2,3.2,1.4,5,1.2C219.8,160.7,228,159.7,237.3,158.7z"/>
<path class="st1" d="M281.6,274.6c-36.6,3.4-73.1,6.9-109.7,10.3c0-21.3-0.1-42.6-0.1-63.9c9.4-0.4,18.4,1.4,27.1,4.5
	c2.8,1,5.6,3.1,6.8-1.8c9.5,7.9,20.1,9.9,31.9,6.1c4.6,9.3,13.6,5.8,21,7.2c-16.8,2.1-33.6,4.7-50.5,6.3c-21.2,2-21.2,1.7-18.3,22.3
	c0.1,0.4,0.1,0.8,0.1,1.1c0.4,6.1,3.3,8.7,9.6,8c12-1.3,24.1-1.9,36.1-3.3c9-1,19.8,2.6,26.5-3.3c7.5-6.6,1.5-18,3.5-27
	c4.9,0.1,9.8,0.3,14.7,0.4C280.7,252.6,281.1,263.6,281.6,274.6z"/>
<path class="st1" d="M275.4,122.9c3.5,12.3,2.8,13.2-8.8,14.2c-30,2.5-60,4.8-89.8,8.1c-9.6,1-14.3-0.7-13.8-11.1
	c0.3-6-0.1-12-0.2-18c4.2-4.7,1.3-10.4,2.3-15.5c7.9,0.5,15.9,1.1,23.8,1.6c5.3,2.4,10.9,2.5,16.5,1.8c1.5,4.6,5.5,5.7,9.4,6.6
	c7.5,1.8,15,3.3,22.6,4.9c-8.4,5.6-17.2,3.9-26,1.5c-4.2-1.2-9.1-4.9-11.1,1.9c-1.9,6.4,4.3,7.2,8.3,8.3c17.1,4.6,32.8,1.4,47.1-9
	c5.6,3.7,12.1,4.2,18.5,4.6l0.6-0.1L275.4,122.9z"/>
<path class="st2" d="M132.1,237.7c5.3-2,14,0.4,14.8-7.5c1.1-10,1.2-20.5-3.8-29.8c-1.5-2.9-5.3-2.2-8.3-2.1c-2,0.1-4.8,0.8-5.5-2.4
	c-0.6-2.8,1.2-4.1,3.5-5c0.4-0.1,0.7-0.3,1-0.5c22.4-9.7,19.7-12.6,20.1,11.2c0.4,23.8,0.5,47.6,2.1,71.3c0.8,11.5-3.2,15-13.8,13.4
	c-3.3-0.5-6.8-0.4-10.2-0.6C133.3,269.8,133.2,253.7,132.1,237.7z"/>
<path class="st3" d="M205.7,223.7c-1.2,4.9-4,2.7-6.8,1.8c-8.8-3.1-17.8-4.9-27.1-4.5c-0.8-14.5-1.6-29-2.4-43.5
	c1.5,0,2.9-0.1,4.4-0.1c10.5,5.6,22.1,6.7,33.6,7.9C197.4,197.7,196.4,210.5,205.7,223.7z"/>
<path class="st2" d="M135,80.9c4.6-2.6,4.5-9.8,11.8-11.3c3.7,17,1.3,34.5,4.3,51.4c0.7,3.7,0.7,7.5,0.7,11.3c0,6.1,4.1,13.7-8.1,14
	c-11.1,0.3-14.1-4.3-13.2-14c0.2-2.3,0.1-4.5,0.2-6.8c4.2-3.5,2-8.3,2.5-12.6C134.3,102.4,130.9,91.4,135,80.9z"/>
<path class="st3" d="M244.5,170.7c2.4-0.1,4.8-0.3,7.2-0.4c9.5,1.1,18.3,5.9,28.1,5c0.9,7,1.1,14,0,21c-10.2-1.7-20.3-3.3-30.5-5
	c-9.4-11.2-21.2-14.6-35.2-10.3c-8.2-1.6-16.8-1.3-24.3-5.6c7.5-1.8,15.1-2.1,22.8-2.1c1.7,2.4,3.3,2,4.7-0.3c7.4-1.9,15-1.9,22.6-2
	C241.6,173.4,243.1,173,244.5,170.7z"/>
<path class="st4" d="M359.9,177.3c2.5-1.4,5.1-2.7,7.6-4.3c4.6-3,6-0.8,6.1,3.6c0.1,3,0,6.1,0,9.1c0,17.5-8.4,23.1-25.1,17.3
	c-3-1.1-4.3-2.4-4.3-5.5c0-7.9,0.3-15.9-0.4-23.8c-0.6-7.6-2.3-15.2-3.6-23.2c5.5,0.4,5.7,5.6,9,7.1c0.9,6.8-8.8,16.2,4.9,19.9
	c0,0-0.5,0.1-0.5,0.1C355.8,180.7,357.9,180.6,359.9,177.3z"/>
<path class="st4" d="M269.7,341.2c-15.5,5.9-15.6,5.9-18-10.2c-1.3-9-2.2-18-3.7-26.9c-2.5-14.7-2.6-14.7,12.1-15.3
	c-0.9,9.6,2.5,18.6,4.7,27.7C266.5,324.7,268.1,332.9,269.7,341.2z"/>
<path class="st4" d="M190,295.7c13.8-2.6,13.9-2.6,9.7,10c-4.1,12.4-9,24.6-12.3,37.2c-2.7,10.2-8.7,13-18.1,11.3
	C180.8,336.3,185.7,316.1,190,295.7z"/>
<path class="st5" d="M232.1,59.1c9.4-1.6,18.9-2.2,28.5-1.7c3.6,0,7.1,0.1,10.7,0.1c0,0,0.2,0.2,0.2,0.2c0.4,2.1,0.9,4.2,1.3,6.3
	c0.2,3.8,0.3,7.6,0.5,11.4c-1.3,0.1-2.7,0.2-4,0.3c-1.8-4.9,2.4-13.6-6.9-13.8c-9.7-0.2-19.6-1.4-29.2,0.9
	c-10.9,0.6-21.8,1.2-32.7,1.8c-3.8,0.7-7.6,1.5-11.5,2.2c-2.6-0.2-5.2-0.6-7.7-0.6c-22.1,0.2-17.8-1.5-18.5,18.3
	c-0.6,0.7-1.3,1.4-1.9,2.1c-2.3-25.9-2.3-26,23.4-27c12.4-0.5,24.7-0.2,37.1-0.3C224.9,59.3,228.5,59.2,232.1,59.1z"/>
<path class="st5" d="M279.8,196.2c1.2-7,0.9-14,0-21c0.3-2.8,0.6-5.6,0.9-8.4c4.9-1.3,4.6,2.1,4.7,5.2c0.7,31.9,1.4,63.9,2,95.8
	c0.1,4,0,7.9-5.9,6.8c-0.4-11-0.9-22-1.3-33c-0.1-13-0.1-26.1-0.2-39.1C279.9,200.4,279.9,198.3,279.8,196.2z"/>
<path class="st4" d="M248.9,370.1c-1.2,0.2-3.4,0.6-3.7-2c-0.4-4,0.9-7.7,5.1-9c6.8-2.1,13.7-3.9,20.6-5.7
	c5.8-1.6,11.6-3.3,17.4-4.6c4.8-1.1,6.9,2.7,8.2,6.1c1.6,4.2-2.2,4.9-5.1,5.6C277.6,363.7,263.6,366.8,248.9,370.1z"/>
<path class="st6" d="M133.9,214.1c3.1,7.4,0.8,11.3-7.4,12.2c-14.8,1.7-29.4,2.1-43.4-4.3c-7-3.2-9.9-7.1-2.8-13.2
	C91.9,220.9,116.1,223.3,133.9,214.1z"/>
<path class="st6" d="M144.3,375.1c4.9-6.8,12.9-4.9,19.5-6.7c8.3-2.3,16.9-3.9,25.4-5.7c5-1.1,6.9,2.6,8.1,6.2
	c1.8,5.5-3.2,5.1-6.1,5.6c-8.5,1.5-17.1,2.6-25.7,3.8c-3-3.9-7.1-3.2-10.9-2C150.8,377.5,147.5,377.3,144.3,375.1z"/>
<path class="st5" d="M169.4,177.5c0.8,14.5,1.6,29,2.4,43.5c0,21.3,0.1,42.6,0.1,63.9c-5,0.9-4.4-2.8-4.5-5.7
	c-0.9-31.6-1.8-63.2-2.6-94.8C164.7,181.3,163.7,177.1,169.4,177.5z"/>
<path class="st6" d="M331.9,192.9c1.6,5.7-0.6,9.5-6,11.6c-4.9,2-9.7,4.3-14.6,6c-12.8,4.5-14,3.5-13.3-10.3
	C310.3,202.4,320.1,193.1,331.9,192.9z"/>
<path class="st7" d="M190,295.7c-4.3,20.4-9.2,40.6-20.8,58.4c-3-3.6-0.3-7,0.7-10.1c4.8-14.5,10.1-28.9,15.2-43.3
	C186,298.3,186.4,295.5,190,295.7z"/>
<path class="st1" d="M196,46.5c8.5-11.6,22.5-11.9,32.4,0C217.3,46.5,207.1,46.5,196,46.5z"/>
<path class="st7" d="M76.5,192c-3.4,5.6-6.1,11.7-10.3,16.2c-4.4,4.7-5.4,17.4-13,13.1c-5.4-3.1,4.5-10.7,7.1-16.5
	c2.3-5.1,5.9-9.6,9-14.3c1.2-1.8,3.2-2.1,5-1.2C75.1,189.7,75.6,190.9,76.5,192z"/>
<path class="st8" d="M133.9,214.1c-17.7,9.2-42,6.8-53.6-5.3c10.9,0.7,20.5,7.1,31.9,6.2C119.4,214.5,126.6,212,133.9,214.1z"/>
<path class="st9" d="M135,80.9c-4.1,10.5-0.6,21.4-1.8,32.1c-0.5,4.3,1.7,9.1-2.5,12.6c-1.3-10.8-2.5-21.6-3.8-32.4
	C126,86.7,128,82.3,135,80.9z"/>
<path class="st5" d="M132.1,237.7c1,16,1.1,32.1,0,48.1c-1.2,0-2.4-0.1-3.6-0.1c-0.3-15.4-0.6-30.8-0.9-46.2
	C128.7,238,130.3,237.4,132.1,237.7z"/>
<path class="st7" d="M269.3,75.7c1.3-0.1,2.7-0.2,4-0.3c2.2,15.8,2.7,31.6,2.1,47.5c0,0-0.6-0.2-0.6-0.2s-0.6,0.1-0.6,0.1
	c-5.7-8.3,0.6-18.7-4.6-27C269.5,89.1,269.4,82.4,269.3,75.7z"/>
<path class="st6" d="M237.3,158.7c-9.3,1.1-17.5,2-25.7,2.9c-1.8,0.2-4.1,0.8-5-1.2c-1.1-2.5,1-4.4,2.5-5.8
	C214.1,150.3,231.2,152.5,237.3,158.7z"/>
<path class="st1" d="M189.8,175.3c7.5,4.3,16.2,4,24.3,5.6c-2.3,1.5-4.5,2.9-6.8,4.4c-11.5-1.2-23.1-2.3-33.6-7.9
	C178.9,174.7,184.4,175.2,189.8,175.3z"/>
<path class="st8" d="M331.9,192.9c-11.8,0.2-21.6,9.6-33.9,7.4c-0.4-2.7,0.9-4.3,3.4-5c9-2.6,18-5.4,27.1-7.8
	C334.4,185.9,334,189,331.9,192.9z"/>
<path class="st1" d="M280.7,166.8c-0.3,2.8-0.6,5.6-0.9,8.4c-9.8,0.9-18.7-3.8-28.1-5C261.1,167.3,270.9,166.8,280.7,166.8z"/>
<path class="st7" d="M269.7,341.2c-1.6-8.2-3.2-16.5-4.8-24.7c1.3-0.2,2.7-0.4,4-0.6c3.7,6.1,3.6,13.2,5.3,19.9
	C275.1,339.1,273.8,341.5,269.7,341.2z"/>
<path class="st7" d="M160.8,86.7c0.6-0.7,1.3-1.4,1.9-2.1c4.1,4.9,1.3,10.7,2.4,16c-1,5.1,1.9,10.8-2.3,15.5
	C162.1,106.3,161.4,96.5,160.8,86.7z"/>
<path class="st8" d="M268.8,315.8c-1.3,0.2-2.7,0.4-4,0.6c-2.2-9.1-5.6-18-4.7-27.7C268.4,296.1,265.7,306.9,268.8,315.8z"/>
<path class="st8" d="M144.3,375.1c3.2,2.2,6.5,2.4,10.3,1.2c3.8-1.2,7.9-1.9,10.9,2c-6,1.3-12,3.1-18,3.9
	C139,383.4,141,379.4,144.3,375.1z"/>
<path class="st2" d="M127.6,239.5c0.3,15.4,0.6,30.8,0.9,46.2C124.6,270.4,126.3,254.9,127.6,239.5z"/>
<path class="st8" d="M354,177.5c-13.6-3.7-4-13.1-4.9-19.9C353.4,163.5,349.9,171.4,354,177.5z"/>
<path class="st7" d="M271.3,57.5c-3.6,0-7.1-0.1-10.7-0.1C264.1,55.6,267.7,55.1,271.3,57.5z"/>
<path class="st1" d="M244.5,170.7c-1.4,2.3-2.9,2.7-4.7,0.3C241.4,169.8,242.9,169.9,244.5,170.7z"/>
<path class="st1" d="M217.3,172.9c-1.4,2.3-2.9,2.8-4.7,0.3C214.1,172.2,215.6,172.1,217.3,172.9z"/>
<path class="st7" d="M232.1,59.1c-3.6,0.1-7.2,0.2-10.8,0.3C224.8,57.8,228.4,57.2,232.1,59.1z"/>
<path class="st7" d="M272.8,64c-0.4-2.1-0.9-4.2-1.3-6.3C274,59.4,273.5,61.7,272.8,64z"/>
<path class="st8" d="M359.9,177.3c-2,3.3-4.1,3.5-6.4,0.3C355.6,177.5,357.8,177.4,359.9,177.3z"/>
<path class="st0" d="M265.6,241.2c-2,9,4,20.4-3.5,27c-6.7,5.9-17.5,2.3-26.5,3.3c-12,1.4-24.1,2-36.1,3.3c-6.3,0.7-9.3-1.9-9.6-8
	c0-0.4-0.1-0.8-0.1-1.1c-2.9-20.7-2.8-20.3,18.3-22.3c16.9-1.6,33.7-4.1,50.5-6.3C262.2,236.3,263.7,239.1,265.6,241.2z
	 M199.1,259.1c-0.6,4.4,1,5.9,5.7,5.5c15-1.4,30-2.6,45-3.6c5.9-0.4,6.5-3.9,5.7-8.6c0.6-3.6-1-4.6-4.4-4.3
	c-16.1,1.7-32.2,3.3-48.3,4.8C198.4,253.3,198.1,255.7,199.1,259.1z"/>
<path class="st0" d="M207.4,185.3c2.3-1.5,4.5-2.9,6.8-4.4c14-4.3,25.7-0.9,35.2,10.3c0.9,2.4,1.8,4.7,2.6,7.1
	c2.6,13.9-2.8,24.1-14.4,31.5c-11.7,3.8-22.4,1.8-31.9-6.1C196.4,210.5,197.4,197.7,207.4,185.3z M242.6,205.1
	c-0.1-8.6-3.7-15.2-12.6-15.7c-13.5-0.7-22,6.6-21.6,16.9c0.3,8,9.3,16.3,17.5,16.1C235.5,222.3,242.7,214.9,242.6,205.1z"/>
<path class="st3" d="M237.6,229.9c11.6-7.4,16.9-17.6,14.4-31.5c9.5,0.7,18.4,5,28,4.1c0.1,13,0.2,26.1,0.2,39.1
	c-4.9-0.1-9.8-0.3-14.7-0.4c-1.9-2.1-3.4-4.9-7-4.1C251.2,235.7,242.2,239.2,237.6,229.9z"/>
<path class="st4" d="M269.6,95.8c5.2,8.4-1.1,18.7,4.6,27c-6.5-0.4-12.9-0.8-18.5-4.6c1.6-3.9,5.7-8.2,0.6-11.8
	c-4.1-2.9-6.3,2-9.2,4c-3,2.1-5.9,4.5-9.7,5.1c-7.5-1.6-15.1-3.1-22.6-4.9c-3.9-0.9-8-2.1-9.4-6.6c5.5-4.1,13.6-6.6,9.5-16.3
	c0-2,0-4,0-6.1c1-0.8,2.8-0.5,2.1-2.9c-2.4-8.5-9.1-11.6-16.5-14.1c10.9-0.6,21.8-1.2,32.7-1.8c0,1.6-0.1,3.1-0.1,4.7
	c-8,10-8.4,18.8-1.3,26.3c6.4,6.8,15.9,6.8,26.8-0.1C262.2,94.4,265.9,95.1,269.6,95.8z"/>
<path class="st0" d="M237.4,115.5c3.8-0.6,6.7-3,9.7-5.1c2.8-2,5.1-6.8,9.2-4c5.1,3.6,1,7.9-0.6,11.8c-14.3,10.4-30.1,13.5-47.1,9
	c-4-1.1-10.2-1.8-8.3-8.3c2-6.8,6.9-3.1,11.1-1.9C220.1,119.4,229,121.1,237.4,115.5z"/>
<path class="st4" d="M165.1,100.6c-1.1-5.3,1.7-11.2-2.4-16c0.7-19.8-3.5-18.2,18.5-18.3c2.6,0,5.2,0.4,7.7,0.6
	c-11.5,10.3-13,16.4-6.8,27.6c0.5,0.9,1,1.8,1.5,2.7c0.8,0.8,1.6,1.6,2.4,2.4c0.9,0.9,1.8,1.8,2.8,2.7
	C180.9,101.7,173,101.1,165.1,100.6z"/>
<path class="st1" d="M280,202.5c-9.7,0.8-18.6-3.5-28-4.1c-0.9-2.4-1.8-4.7-2.6-7.1c10.2,1.7,20.3,3.3,30.5,5
	C279.9,198.3,279.9,200.4,280,202.5z"/>
<path class="st6" d="M269.6,95.8c-3.7-0.7-7.4-1.4-11.1-2.1c1.3-3.1,3.3-6.2,3.8-9.4c1.3-7.8-1.5-14.5-8.5-18.2
	c-5.4-2.9-11.7-6-16.6,1.3c0,0-0.3,0.1-0.3,0.1c-1.3,0-2.6,0-3.9,0c0-1.6,0.1-3.1,0.1-4.7c9.7-2.3,19.5-1.1,29.2-0.9
	c9.3,0.2,5.2,8.9,6.9,13.8C269.4,82.4,269.5,89.1,269.6,95.8z"/>
<path class="st2" d="M255.4,252.3c0.8,4.7,0.2,8.2-5.7,8.6c-15,1.1-30,2.2-45,3.6c-4.6,0.4-6.3-1-5.7-5.5
	C217.9,256.8,236.6,254.6,255.4,252.3z"/>
<path class="st7" d="M255.4,252.3c-18.8,2.3-37.6,4.5-56.4,6.8c-1-3.4-0.7-5.8,3.7-6.3c16.1-1.5,32.2-3.1,48.3-4.8
	C254.4,247.7,256.1,248.8,255.4,252.3z"/>
<path class="st10" d="M242.6,205.1c0.1,9.8-7.1,17.2-16.8,17.4c-8.2,0.1-17.1-8.1-17.5-16.1c-0.4-10.3,8.1-17.6,21.6-16.9
	C238.9,189.9,242.5,196.6,242.6,205.1z M237.6,203.1c-0.3-5.8-4.4-9.9-12-9.7c-7.8,0.2-11.2,4.8-11.3,12.4
	c-0.1,8.2,5.3,11.8,12,11.7C233.4,217.4,237.9,212.8,237.6,203.1z"/>
<path class="st0" d="M237.6,203.1c0.3,9.7-4.2,14.3-11.3,14.4c-6.8,0.1-12.1-3.5-12-11.7c0.1-7.6,3.5-12.2,11.3-12.4
	C233.3,193.2,237.4,197.3,237.6,203.1z M232.5,205.4c-0.7-3.5-2.2-6.5-6.3-6.6c-4-0.1-6.4,2.3-6.6,6.1c-0.2,4.3,1.9,7.2,6.6,7.1
	C230.6,212.1,231.7,208.8,232.5,205.4z"/>
<path class="st6" d="M232.5,205.4c-0.9,3.4-1.9,6.6-6.3,6.7c-4.8,0-6.8-2.8-6.6-7.1c0.2-3.9,2.6-6.3,6.6-6.1
	C230.3,198.9,231.9,201.9,232.5,205.4z"/>
<circle class="st0" cx="196.5" cy="85.1" r="22.1"/>
<circle class="st11" cx="196.5" cy="84.9" r="16.2"/>
<circle class="st12" cx="196.5" cy="84.9" r="10.3"/>
<circle class="st0" cx="247.1" cy="80.7" r="20.6"/>
<circle class="st11" cx="247.1" cy="80.5" r="15.1"/>
<circle class="st12" cx="247.1" cy="80.5" r="9.7"/>
<g>
</g>
<g>
</g>
<g>
</g>
<g>
</g>
<g>
</g>
<g>
</g>
</svg>
